<svg height='100px' width='100px'  fill="#000000" xmlns="http://www.w3.org/2000/svg" data-name="Layer 1" viewBox="0 0 100 100" x="0px" y="0px"><title>A___48</title><path d="M87.45,25.59808,72.777,40.27124,59.72925,27.22345l14.673-14.6731a4.42278,4.42278,0,1,0-6.25476-6.25476L53.47461,20.96869,47.1781,14.67206a3.9457,3.9457,0,0,0-5.25989-.37024,3.83519,3.83519,0,0,0-.27905,5.67633,2.63347,2.63347,0,0,1,0,3.72412l-10.04492,10.045a24.49651,24.49651,0,0,0-4.654,28.11731,7.9422,7.9422,0,0,0-2.63331,8.87915L6.02539,89.02521a3.49963,3.49963,0,1,0,4.94922,4.94922L29.25549,75.69354a7.942,7.942,0,0,0,8.88074-2.63269,24.49578,24.49578,0,0,0,28.11694-4.654L76.2981,58.36176a2.63324,2.63324,0,0,1,3.72412,0,3.83518,3.83518,0,0,0,5.67627-.27906,3.94572,3.94572,0,0,0-.37012-5.26l-6.29663-6.29663L93.70459,31.853a4.42281,4.42281,0,0,0-6.25464-6.255Z"></path></svg>