<svg version="1" xmlns="http://www.w3.org/2000/svg" width="933.333" height="933.333" viewBox="0 0 700.000000 700.000000"><path d="M491 35.9c-7.7 2.4-13.2 7.4-63.7 57.9l-53 53-24.4-24.3c-16.6-16.5-25.7-24.8-28.4-26-5.3-2.2-16.7-2.3-21.8-.1-15.7 6.9-20.9 27.6-10.2 40.8 7.3 9 9.1 16.9 5.4 24-.6 1.3-19.1 20.3-41 42.3-46.7 46.9-51.5 52.5-62.3 72.7-10.6 19.7-15.7 35.8-19.4 60.3-.4 2.7-.7 12.6-.6 22 0 15.4.4 21.4 1.9 27.8.3 1.2.7 3.3.9 4.7 1.6 9.6 7.2 27.1 11.5 36.1l2.6 5.5-4.4 4.5c-6.2 6.2-11.8 15.1-14.2 22.8-2.8 8.5-3.3 21.7-1.3 29.6l1.5 5.8-65 65.1c-35.8 35.8-65.7 66-66.4 67.1C28.5 643.2 40.8 665 60 665c9.7 0 9.9-.2 79.5-69.9 58.6-58.8 65.2-65.1 67.5-64.5 1.4.3 3.6.9 5 1.2 1.4.4 6.8.6 12 .6 15 0 28.3-5.6 38.7-16.4l4.2-4.4 7.3 3.1c8.8 3.8 24.4 8.9 31.3 10.3 2.8.5 6 1.1 7.2 1.4 9.7 2 38.3 2.8 50.3 1.3 30.7-3.7 60.8-16.1 84.8-34.9 4.2-3.4 25.5-23.7 47.2-45.4 21.7-21.6 40.7-40.2 42.1-41.3 1.4-1.1 4.8-2.3 7.5-2.6 5.9-.8 10.4.8 16.7 5.8 5.3 4.4 7.6 5.5 12.4 6.4 9.2 1.6 16.6-.5 23.6-6.7 5.3-4.6 7.9-11 8-19.5.1-11-1.7-13.5-28.7-40.4l-23.5-23.4 50.7-50.8c27.9-27.9 52.2-52.3 54-54.3 4.7-5.2 7.1-12.9 6.8-21.3-.5-11.3-6.9-20.8-17.4-26-4.7-2.3-7-2.8-13.2-2.8-13.5.1-12-1.2-71.5 58.4l-53 53-45.7-45.7-45.8-45.7 52.8-52.7c59.4-59.4 58.5-58.3 58.6-71.6.1-6.4-.3-8.6-2.6-13.2-5.3-10.8-15.7-17.6-27.3-17.8-3.3 0-7.1.3-8.5.7z"/></svg>